<svg viewBox="0 0 100 100" xmlns="http://www.w3.org/2000/svg">
  <defs>
    <radialGradient id="skyGradient" cx="50%" cy="50%" r="50%" fx="50%" fy="50%">
      <stop offset="0%" style="stop-color:#2c2c43;" />
      <stop offset="100%" style="stop-color:#0d0d17;" />
    </radialGradient>
  </defs>
  <circle cx="50" cy="50" r="50" fill="url(#skyGradient)"/>
  <g id="stars">
    <circle cx="15" cy="20" r="0.5" fill="white" opacity="0.9"/>
    <circle cx="25" cy="10" r="0.7" fill="white" opacity="0.8"/>
    <circle cx="35" cy="25" r="0.4" fill="white" opacity="0.95"/>
    <circle cx="50" cy="15" r="0.8" fill="white" opacity="0.85"/>
    <circle cx="65" cy="22" r="0.6" fill="white" opacity="0.9"/>
    <circle cx="75" cy="12" r="0.5" fill="white" opacity="0.9"/>
    <circle cx="85" cy="28" r="0.7" fill="white" opacity="0.8"/>
    <circle cx="10" cy="40" r="0.6" fill="white" opacity="0.7"/>
    <circle cx="22" cy="55" r="0.8" fill="white" opacity="0.95"/>
    <circle cx="38" cy="45" r="0.5" fill="white" opacity="0.9"/>
    <circle cx="55" cy="50" r="0.7" fill="white" opacity="0.8"/>
    <circle cx="70" cy="48" r="0.4" fill="white" opacity="0.95"/>
    <circle cx="88" cy="52" r="0.6" fill="white" opacity="0.8"/>
    <circle cx="18" cy="70" r="0.7" fill="white" opacity="0.85"/>
    <circle cx="30" cy="80" r="0.5" fill="white" opacity="0.9"/>
    <circle cx="45" cy="72" r="0.8" fill="white" opacity="0.9"/>
    <circle cx="60" cy="85" r="0.6" fill="white" opacity="0.8"/>
    <circle cx="78" cy="75" r="0.5" fill="white" opacity="0.7"/>
    <circle cx="92" cy="82" r="0.7" fill="white" opacity="0.9"/>
    <circle cx="8" cy="88" r="0.4" fill="white" opacity="0.95"/>
    <circle cx="28" cy="92" r="0.6" fill="white" opacity="0.85"/>
    <circle cx="52" cy="95" r="0.5" fill="white" opacity="0.9"/>
    <circle cx="72" cy="90" r="0.8" fill="white" opacity="0.9"/>
    <circle cx="5" cy="5" r="0.3" fill="white" opacity="0.8"/>
    <circle cx="95" cy="95" r="0.3" fill="white" opacity="0.8"/>
    <circle cx="95" cy="5" r="0.3" fill="white" opacity="0.8"/>
    <circle cx="5" cy="95" r="0.3" fill="white" opacity="0.8"/>
    <circle cx="50" cy="50" r="0.3" fill="white" opacity="0.6"/>
    <circle cx="42" cy="8" r="0.4" fill="white" opacity="0.8"/>
    <circle cx="80" cy="95" r="0.5" fill="white" opacity="0.9"/>
    <circle cx="8" cy="65" r="0.6" fill="white" opacity="0.85"/>
    <circle cx="93" cy="35" r="0.4" fill="white" opacity="0.9"/>
  </g>
</svg>
